<svg width="145" height="61" viewBox="0 0 145 61" fill="none" xmlns="http://www.w3.org/2000/svg">
<g opacity="0.9">
<g opacity="0.9">
<line opacity="0.5" y1="-0.5" x2="69.4475" y2="-0.5" transform="matrix(-0.489423 0.872047 -0.901727 -0.432306 34.8856 0)" stroke="#B4FFE1"/>
<line opacity="0.5" y1="-0.5" x2="69.4475" y2="-0.5" transform="matrix(-0.489423 0.872047 -0.901727 -0.432306 38.3898 0)" stroke="#B4FFE1"/>
<line opacity="0.5" y1="-0.5" x2="69.4475" y2="-0.5" transform="matrix(-0.489423 0.872047 -0.901727 -0.432306 41.8939 0)" stroke="#B4FFE1"/>
<line opacity="0.5" y1="-0.5" x2="69.4475" y2="-0.5" transform="matrix(-0.489423 0.872047 -0.901727 -0.432306 45.3977 0)" stroke="#B4FFE1"/>
<line opacity="0.5" y1="-0.5" x2="69.4475" y2="-0.5" transform="matrix(-0.489423 0.872047 -0.901727 -0.432306 48.902 0)" stroke="#B4FFE1"/>
<line opacity="0.5" y1="-0.5" x2="69.4475" y2="-0.5" transform="matrix(-0.489423 0.872047 -0.901727 -0.432306 52.4061 0)" stroke="#B4FFE1"/>
<line opacity="0.5" y1="-0.5" x2="69.4475" y2="-0.5" transform="matrix(-0.489423 0.872047 -0.901727 -0.432306 55.9098 0)" stroke="#B4FFE1"/>
<line opacity="0.5" y1="-0.5" x2="69.4475" y2="-0.5" transform="matrix(-0.489423 0.872047 -0.901727 -0.432306 59.4142 0)" stroke="#B4FFE1"/>
</g>
<g opacity="0.9">
<line opacity="0.5" y1="-0.5" x2="69.4475" y2="-0.5" transform="matrix(-0.489423 0.872047 -0.901727 -0.432306 62.7821 0)" stroke="#B4FFE1"/>
<line opacity="0.5" y1="-0.5" x2="69.4475" y2="-0.5" transform="matrix(-0.489423 0.872047 -0.901727 -0.432306 66.2864 0)" stroke="#B4FFE1"/>
<line opacity="0.5" y1="-0.5" x2="69.4475" y2="-0.5" transform="matrix(-0.489423 0.872047 -0.901727 -0.432306 69.7905 0)" stroke="#B4FFE1"/>
<line opacity="0.5" y1="-0.5" x2="69.4475" y2="-0.5" transform="matrix(-0.489423 0.872047 -0.901727 -0.432306 73.2942 0)" stroke="#B4FFE1"/>
<line opacity="0.5" y1="-0.5" x2="69.4475" y2="-0.5" transform="matrix(-0.489423 0.872047 -0.901727 -0.432306 76.7986 0)" stroke="#B4FFE1"/>
<line opacity="0.5" y1="-0.5" x2="69.4475" y2="-0.5" transform="matrix(-0.489423 0.872047 -0.901727 -0.432306 80.3025 0)" stroke="#B4FFE1"/>
<line opacity="0.5" y1="-0.5" x2="69.4475" y2="-0.5" transform="matrix(-0.489423 0.872047 -0.901727 -0.432306 83.8064 0)" stroke="#B4FFE1"/>
<line opacity="0.5" y1="-0.5" x2="69.4475" y2="-0.5" transform="matrix(-0.489423 0.872047 -0.901727 -0.432306 87.3105 0)" stroke="#B4FFE1"/>
</g>
<g opacity="0.9">
<line opacity="0.5" y1="-0.5" x2="69.4475" y2="-0.5" transform="matrix(-0.489423 0.872047 -0.901727 -0.432306 90.6787 0)" stroke="#B4FFE1"/>
<line opacity="0.5" y1="-0.5" x2="69.4475" y2="-0.5" transform="matrix(-0.489423 0.872047 -0.901727 -0.432306 94.1827 0)" stroke="#B4FFE1"/>
<line opacity="0.5" y1="-0.5" x2="69.4475" y2="-0.5" transform="matrix(-0.489423 0.872047 -0.901727 -0.432306 97.687 0)" stroke="#B4FFE1"/>
<line opacity="0.5" y1="-0.5" x2="69.4475" y2="-0.5" transform="matrix(-0.489423 0.872047 -0.901727 -0.432306 101.191 0)" stroke="#B4FFE1"/>
<line opacity="0.5" y1="-0.5" x2="69.4475" y2="-0.5" transform="matrix(-0.489423 0.872047 -0.901727 -0.432306 104.695 0)" stroke="#B4FFE1"/>
<line opacity="0.5" y1="-0.5" x2="69.4475" y2="-0.5" transform="matrix(-0.489423 0.872047 -0.901727 -0.432306 108.199 0)" stroke="#B4FFE1"/>
<line opacity="0.5" y1="-0.5" x2="69.4475" y2="-0.5" transform="matrix(-0.489423 0.872047 -0.901727 -0.432306 111.703 0)" stroke="#B4FFE1"/>
<line opacity="0.5" y1="-0.5" x2="69.4475" y2="-0.5" transform="matrix(-0.489423 0.872047 -0.901727 -0.432306 115.207 0)" stroke="#B4FFE1"/>
</g>
<g opacity="0.9">
<line opacity="0.5" y1="-0.5" x2="69.4475" y2="-0.5" transform="matrix(-0.489423 0.872047 -0.901727 -0.432306 118.575 0)" stroke="#B4FFE1"/>
<line opacity="0.5" y1="-0.5" x2="69.4475" y2="-0.5" transform="matrix(-0.489423 0.872047 -0.901727 -0.432306 122.079 0)" stroke="#B4FFE1"/>
<line opacity="0.5" y1="-0.5" x2="69.4475" y2="-0.5" transform="matrix(-0.489423 0.872047 -0.901727 -0.432306 125.584 0)" stroke="#B4FFE1"/>
<line opacity="0.5" y1="-0.5" x2="69.4475" y2="-0.5" transform="matrix(-0.489423 0.872047 -0.901727 -0.432306 129.087 0)" stroke="#B4FFE1"/>
<line opacity="0.5" y1="-0.5" x2="69.4475" y2="-0.5" transform="matrix(-0.489423 0.872047 -0.901727 -0.432306 132.591 0)" stroke="#B4FFE1"/>
<line opacity="0.5" y1="-0.5" x2="69.4475" y2="-0.5" transform="matrix(-0.489423 0.872047 -0.901727 -0.432306 136.096 0)" stroke="#B4FFE1"/>
<line opacity="0.5" y1="-0.5" x2="69.4475" y2="-0.5" transform="matrix(-0.489423 0.872047 -0.901727 -0.432306 139.599 0)" stroke="#B4FFE1"/>
<line opacity="0.5" y1="-0.5" x2="69.4475" y2="-0.5" transform="matrix(-0.489423 0.872047 -0.901727 -0.432306 143.104 0)" stroke="#B4FFE1"/>
</g>
</g>
</svg>
