<svg width="791" height="223" viewBox="0 0 791 223" fill="none" xmlns="http://www.w3.org/2000/svg">
<g opacity="0.67">
<line opacity="0.5" y1="-0.5" x2="242.266" y2="-0.5" transform="matrix(-0.400386 0.916347 -0.851499 -0.524356 375 0)" stroke="#B4FFE1"/>
<line opacity="0.5" y1="-0.5" x2="242.266" y2="-0.5" transform="matrix(-0.400386 0.916347 -0.851499 -0.524356 385 0)" stroke="#B4FFE1"/>
<line opacity="0.5" y1="-0.5" x2="242.266" y2="-0.5" transform="matrix(-0.400386 0.916347 -0.851499 -0.524356 395 0)" stroke="#B4FFE1"/>
<line opacity="0.5" y1="-0.5" x2="242.266" y2="-0.5" transform="matrix(-0.400386 0.916347 -0.851499 -0.524356 405 0)" stroke="#B4FFE1"/>
<line opacity="0.5" y1="-0.5" x2="242.266" y2="-0.5" transform="matrix(-0.400386 0.916347 -0.851499 -0.524356 415 0)" stroke="#B4FFE1"/>
<line opacity="0.5" y1="-0.5" x2="242.266" y2="-0.5" transform="matrix(-0.400386 0.916347 -0.851499 -0.524356 425 0)" stroke="#B4FFE1"/>
<line opacity="0.5" y1="-0.5" x2="242.266" y2="-0.5" transform="matrix(-0.400386 0.916347 -0.851499 -0.524356 435 0)" stroke="#B4FFE1"/>
<line opacity="0.5" y1="-0.5" x2="242.266" y2="-0.5" transform="matrix(-0.400386 0.916347 -0.851499 -0.524356 445 0)" stroke="#B4FFE1"/>
<line opacity="0.5" y1="-0.5" x2="242.266" y2="-0.5" transform="matrix(-0.400386 0.916347 -0.851499 -0.524356 454 0)" stroke="#B4FFE1"/>
<line opacity="0.5" y1="-0.5" x2="242.266" y2="-0.5" transform="matrix(-0.400386 0.916347 -0.851499 -0.524356 464 0)" stroke="#B4FFE1"/>
<line opacity="0.5" y1="-0.5" x2="242.266" y2="-0.5" transform="matrix(-0.400386 0.916347 -0.851499 -0.524356 474 0)" stroke="#B4FFE1"/>
<line opacity="0.5" y1="-0.5" x2="242.266" y2="-0.5" transform="matrix(-0.400386 0.916347 -0.851499 -0.524356 484 0)" stroke="#B4FFE1"/>
<line opacity="0.5" y1="-0.5" x2="242.266" y2="-0.5" transform="matrix(-0.400386 0.916347 -0.851499 -0.524356 494 0)" stroke="#B4FFE1"/>
<line opacity="0.5" y1="-0.5" x2="242.266" y2="-0.5" transform="matrix(-0.400386 0.916347 -0.851499 -0.524356 504 0)" stroke="#B4FFE1"/>
<line opacity="0.5" y1="-0.5" x2="242.266" y2="-0.5" transform="matrix(-0.400386 0.916347 -0.851499 -0.524356 514 0)" stroke="#B4FFE1"/>
<line opacity="0.5" y1="-0.5" x2="242.266" y2="-0.5" transform="matrix(-0.400386 0.916347 -0.851499 -0.524356 524 0)" stroke="#B4FFE1"/>
<line opacity="0.5" y1="-0.5" x2="242.266" y2="-0.5" transform="matrix(-0.400386 0.916347 -0.851499 -0.524356 651 0)" stroke="#B4FFE1"/>
<line opacity="0.5" y1="-0.5" x2="242.266" y2="-0.5" transform="matrix(-0.400386 0.916347 -0.851499 -0.524356 661 0)" stroke="#B4FFE1"/>
<line opacity="0.5" y1="-0.5" x2="242.266" y2="-0.5" transform="matrix(-0.400386 0.916347 -0.851499 -0.524356 671 0)" stroke="#B4FFE1"/>
<line opacity="0.5" y1="-0.5" x2="242.266" y2="-0.5" transform="matrix(-0.400386 0.916347 -0.851499 -0.524356 681 0)" stroke="#B4FFE1"/>
<line opacity="0.5" y1="-0.5" x2="242.266" y2="-0.5" transform="matrix(-0.400386 0.916347 -0.851499 -0.524356 691 0)" stroke="#B4FFE1"/>
<line opacity="0.5" y1="-0.5" x2="242.266" y2="-0.5" transform="matrix(-0.400386 0.916347 -0.851499 -0.524356 700 0)" stroke="#B4FFE1"/>
<line opacity="0.5" y1="-0.5" x2="242.266" y2="-0.5" transform="matrix(-0.400386 0.916347 -0.851499 -0.524356 710 0)" stroke="#B4FFE1"/>
<line opacity="0.5" y1="-0.5" x2="242.266" y2="-0.5" transform="matrix(-0.400386 0.916347 -0.851499 -0.524356 720 0)" stroke="#B4FFE1"/>
<line opacity="0.5" y1="-0.5" x2="242.266" y2="-0.5" transform="matrix(-0.400386 0.916347 -0.851499 -0.524356 730 0)" stroke="#B4FFE1"/>
<line opacity="0.5" y1="-0.5" x2="242.266" y2="-0.5" transform="matrix(-0.400386 0.916347 -0.851499 -0.524356 740 0)" stroke="#B4FFE1"/>
<line opacity="0.5" y1="-0.5" x2="242.266" y2="-0.5" transform="matrix(-0.400386 0.916347 -0.851499 -0.524356 750 0)" stroke="#B4FFE1"/>
<line opacity="0.5" y1="-0.5" x2="242.266" y2="-0.5" transform="matrix(-0.400386 0.916347 -0.851499 -0.524356 760 0)" stroke="#B4FFE1"/>
<line opacity="0.5" y1="-0.5" x2="242.266" y2="-0.5" transform="matrix(-0.400386 0.916347 -0.851499 -0.524356 770 0)" stroke="#B4FFE1"/>
<line opacity="0.5" y1="-0.5" x2="242.266" y2="-0.5" transform="matrix(-0.400386 0.916347 -0.851499 -0.524356 780 0)" stroke="#B4FFE1"/>
<line opacity="0.5" y1="-0.5" x2="242.266" y2="-0.5" transform="matrix(-0.400386 0.916347 -0.851499 -0.524356 790 0)" stroke="#B4FFE1"/>
<line opacity="0.5" y1="-0.5" x2="242.266" y2="-0.5" transform="matrix(-0.400386 0.916347 -0.851499 -0.524356 533 0)" stroke="#B4FFE1"/>
<line opacity="0.5" y1="-0.5" x2="242.266" y2="-0.5" transform="matrix(-0.400386 0.916347 -0.851499 -0.524356 543 0)" stroke="#B4FFE1"/>
<line opacity="0.5" y1="-0.5" x2="242.266" y2="-0.5" transform="matrix(-0.400386 0.916347 -0.851499 -0.524356 553 0)" stroke="#B4FFE1"/>
<line opacity="0.5" y1="-0.5" x2="242.266" y2="-0.5" transform="matrix(-0.400386 0.916347 -0.851499 -0.524356 563 0)" stroke="#B4FFE1"/>
<line opacity="0.5" y1="-0.5" x2="242.266" y2="-0.5" transform="matrix(-0.400386 0.916347 -0.851499 -0.524356 573 0)" stroke="#B4FFE1"/>
<line opacity="0.5" y1="-0.5" x2="242.266" y2="-0.5" transform="matrix(-0.400386 0.916347 -0.851499 -0.524356 583 0)" stroke="#B4FFE1"/>
<line opacity="0.5" y1="-0.5" x2="242.266" y2="-0.5" transform="matrix(-0.400386 0.916347 -0.851499 -0.524356 593 0)" stroke="#B4FFE1"/>
<line opacity="0.5" y1="-0.5" x2="242.266" y2="-0.5" transform="matrix(-0.400386 0.916347 -0.851499 -0.524356 603 0)" stroke="#B4FFE1"/>
<line opacity="0.5" y1="-0.5" x2="242.266" y2="-0.5" transform="matrix(-0.400386 0.916347 -0.851499 -0.524356 137 0)" stroke="#B4FFE1"/>
<line opacity="0.5" y1="-0.5" x2="242.266" y2="-0.5" transform="matrix(-0.400386 0.916347 -0.851499 -0.524356 147 0)" stroke="#B4FFE1"/>
<line opacity="0.5" y1="-0.5" x2="242.266" y2="-0.5" transform="matrix(-0.400386 0.916347 -0.851499 -0.524356 157 0)" stroke="#B4FFE1"/>
<line opacity="0.5" y1="-0.5" x2="242.266" y2="-0.5" transform="matrix(-0.400386 0.916347 -0.851499 -0.524356 167 0)" stroke="#B4FFE1"/>
<line opacity="0.5" y1="-0.5" x2="242.266" y2="-0.5" transform="matrix(-0.400386 0.916347 -0.851499 -0.524356 177 0)" stroke="#B4FFE1"/>
<line opacity="0.5" y1="-0.5" x2="242.266" y2="-0.5" transform="matrix(-0.400386 0.916347 -0.851499 -0.524356 187 0)" stroke="#B4FFE1"/>
<line opacity="0.5" y1="-0.5" x2="242.266" y2="-0.5" transform="matrix(-0.400386 0.916347 -0.851499 -0.524356 197 0)" stroke="#B4FFE1"/>
<line opacity="0.5" y1="-0.5" x2="242.266" y2="-0.5" transform="matrix(-0.400386 0.916347 -0.851499 -0.524356 207 0)" stroke="#B4FFE1"/>
<line opacity="0.5" y1="-0.5" x2="242.266" y2="-0.5" transform="matrix(-0.400386 0.916347 -0.851499 -0.524356 216 0)" stroke="#B4FFE1"/>
<line opacity="0.5" y1="-0.5" x2="242.266" y2="-0.5" transform="matrix(-0.400386 0.916347 -0.851499 -0.524356 226 0)" stroke="#B4FFE1"/>
<line opacity="0.5" y1="-0.5" x2="242.266" y2="-0.5" transform="matrix(-0.400386 0.916347 -0.851499 -0.524356 236 0)" stroke="#B4FFE1"/>
<line opacity="0.5" y1="-0.5" x2="242.266" y2="-0.5" transform="matrix(-0.400386 0.916347 -0.851499 -0.524356 97 0)" stroke="#B4FFE1"/>
<line opacity="0.5" y1="-0.5" x2="242.266" y2="-0.5" transform="matrix(-0.400386 0.916347 -0.851499 -0.524356 106 0)" stroke="#B4FFE1"/>
<line opacity="0.5" y1="-0.5" x2="242.266" y2="-0.5" transform="matrix(-0.400386 0.916347 -0.851499 -0.524356 116 0)" stroke="#B4FFE1"/>
<line opacity="0.5" y1="-0.5" x2="242.266" y2="-0.5" transform="matrix(-0.400386 0.916347 -0.851499 -0.524356 126 0)" stroke="#B4FFE1"/>
<line opacity="0.5" y1="-0.5" x2="242.266" y2="-0.5" transform="matrix(-0.400386 0.916347 -0.851499 -0.524356 613 0)" stroke="#B4FFE1"/>
<line opacity="0.5" y1="-0.5" x2="242.266" y2="-0.5" transform="matrix(-0.400386 0.916347 -0.851499 -0.524356 622 0)" stroke="#B4FFE1"/>
<line opacity="0.5" y1="-0.5" x2="242.266" y2="-0.5" transform="matrix(-0.400386 0.916347 -0.851499 -0.524356 632 0)" stroke="#B4FFE1"/>
<line opacity="0.5" y1="-0.5" x2="242.266" y2="-0.5" transform="matrix(-0.400386 0.916347 -0.851499 -0.524356 642 0)" stroke="#B4FFE1"/>
<line opacity="0.5" y1="-0.5" x2="242.266" y2="-0.5" transform="matrix(-0.400386 0.916347 -0.851499 -0.524356 246 0)" stroke="#B4FFE1"/>
<line opacity="0.5" y1="-0.5" x2="242.266" y2="-0.5" transform="matrix(-0.400386 0.916347 -0.851499 -0.524356 256 0)" stroke="#B4FFE1"/>
<line opacity="0.5" y1="-0.5" x2="242.266" y2="-0.5" transform="matrix(-0.400386 0.916347 -0.851499 -0.524356 266 0)" stroke="#B4FFE1"/>
<line opacity="0.5" y1="-0.5" x2="242.266" y2="-0.5" transform="matrix(-0.400386 0.916347 -0.851499 -0.524356 276 0)" stroke="#B4FFE1"/>
<line opacity="0.5" y1="-0.5" x2="242.266" y2="-0.5" transform="matrix(-0.400386 0.916347 -0.851499 -0.524356 286 0)" stroke="#B4FFE1"/>
<line opacity="0.5" y1="-0.5" x2="242.266" y2="-0.5" transform="matrix(-0.400386 0.916347 -0.851499 -0.524356 295 0)" stroke="#B4FFE1"/>
<line opacity="0.5" y1="-0.5" x2="242.266" y2="-0.5" transform="matrix(-0.400386 0.916347 -0.851499 -0.524356 305 0)" stroke="#B4FFE1"/>
<line opacity="0.5" y1="-0.5" x2="242.266" y2="-0.5" transform="matrix(-0.400386 0.916347 -0.851499 -0.524356 315 0)" stroke="#B4FFE1"/>
<line opacity="0.5" y1="-0.5" x2="242.266" y2="-0.5" transform="matrix(-0.400386 0.916347 -0.851499 -0.524356 325 0)" stroke="#B4FFE1"/>
<line opacity="0.5" y1="-0.5" x2="242.266" y2="-0.5" transform="matrix(-0.400386 0.916347 -0.851499 -0.524356 335 0)" stroke="#B4FFE1"/>
<line opacity="0.5" y1="-0.5" x2="242.266" y2="-0.5" transform="matrix(-0.400386 0.916347 -0.851499 -0.524356 345 0)" stroke="#B4FFE1"/>
<line opacity="0.5" y1="-0.5" x2="242.266" y2="-0.5" transform="matrix(-0.400386 0.916347 -0.851499 -0.524356 355 0)" stroke="#B4FFE1"/>
<line opacity="0.5" y1="-0.5" x2="242.266" y2="-0.5" transform="matrix(-0.400386 0.916347 -0.851499 -0.524356 365 0)" stroke="#B4FFE1"/>
</g>
</svg>
