<svg width="199" height="61" viewBox="0 0 199 61" fill="none" xmlns="http://www.w3.org/2000/svg">
<g opacity="0.9">
<line opacity="0.5" y1="-0.5" x2="69.4475" y2="-0.5" transform="matrix(-0.489423 0.872047 -0.901727 -0.432306 33.9891 0)" stroke="#533FEB"/>
<line opacity="0.5" y1="-0.5" x2="69.4475" y2="-0.5" transform="matrix(-0.489423 0.872047 -0.901727 -0.432306 37.4933 0)" stroke="#533FEB"/>
<line opacity="0.5" y1="-0.5" x2="69.4475" y2="-0.5" transform="matrix(-0.489423 0.872047 -0.901727 -0.432306 40.9974 0)" stroke="#533FEB"/>
<line opacity="0.5" y1="-0.5" x2="69.4475" y2="-0.5" transform="matrix(-0.489423 0.872047 -0.901727 -0.432306 44.5012 0)" stroke="#533FEB"/>
<line opacity="0.5" y1="-0.5" x2="69.4475" y2="-0.5" transform="matrix(-0.489423 0.872047 -0.901727 -0.432306 48.0056 0)" stroke="#533FEB"/>
<line opacity="0.5" y1="-0.5" x2="69.4475" y2="-0.5" transform="matrix(-0.489423 0.872047 -0.901727 -0.432306 51.5095 0)" stroke="#533FEB"/>
<line opacity="0.5" y1="-0.5" x2="69.4475" y2="-0.5" transform="matrix(-0.489423 0.872047 -0.901727 -0.432306 55.0134 0)" stroke="#533FEB"/>
<line opacity="0.5" y1="-0.5" x2="69.4475" y2="-0.5" transform="matrix(-0.489423 0.872047 -0.901727 -0.432306 58.5176 0)" stroke="#533FEB"/>
</g>
<g opacity="0.9">
<line opacity="0.5" y1="-0.5" x2="69.4475" y2="-0.5" transform="matrix(-0.489423 0.872047 -0.901727 -0.432306 61.8857 0)" stroke="#533FEB"/>
<line opacity="0.5" y1="-0.5" x2="69.4475" y2="-0.5" transform="matrix(-0.489423 0.872047 -0.901727 -0.432306 65.3896 0)" stroke="#533FEB"/>
<line opacity="0.5" y1="-0.5" x2="69.4475" y2="-0.5" transform="matrix(-0.489423 0.872047 -0.901727 -0.432306 68.894 0)" stroke="#533FEB"/>
<line opacity="0.5" y1="-0.5" x2="69.4475" y2="-0.5" transform="matrix(-0.489423 0.872047 -0.901727 -0.432306 72.3978 0)" stroke="#533FEB"/>
<line opacity="0.5" y1="-0.5" x2="69.4475" y2="-0.5" transform="matrix(-0.489423 0.872047 -0.901727 -0.432306 75.902 0)" stroke="#533FEB"/>
<line opacity="0.5" y1="-0.5" x2="69.4475" y2="-0.5" transform="matrix(-0.489423 0.872047 -0.901727 -0.432306 79.4061 0)" stroke="#533FEB"/>
<line opacity="0.5" y1="-0.5" x2="69.4475" y2="-0.5" transform="matrix(-0.489423 0.872047 -0.901727 -0.432306 82.9098 0)" stroke="#533FEB"/>
<line opacity="0.5" y1="-0.5" x2="69.4475" y2="-0.5" transform="matrix(-0.489423 0.872047 -0.901727 -0.432306 86.4141 0)" stroke="#533FEB"/>
</g>
<g opacity="0.9">
<line opacity="0.5" y1="-0.5" x2="69.4475" y2="-0.5" transform="matrix(-0.489423 0.872047 -0.901727 -0.432306 89.7821 0)" stroke="#533FEB"/>
<line opacity="0.5" y1="-0.5" x2="69.4475" y2="-0.5" transform="matrix(-0.489423 0.872047 -0.901727 -0.432306 93.2863 0)" stroke="#533FEB"/>
<line opacity="0.5" y1="-0.5" x2="69.4475" y2="-0.5" transform="matrix(-0.489423 0.872047 -0.901727 -0.432306 96.7904 0)" stroke="#533FEB"/>
<line opacity="0.5" y1="-0.5" x2="69.4475" y2="-0.5" transform="matrix(-0.489423 0.872047 -0.901727 -0.432306 100.294 0)" stroke="#533FEB"/>
<line opacity="0.5" y1="-0.5" x2="69.4475" y2="-0.5" transform="matrix(-0.489423 0.872047 -0.901727 -0.432306 103.798 0)" stroke="#533FEB"/>
<line opacity="0.5" y1="-0.5" x2="69.4475" y2="-0.5" transform="matrix(-0.489423 0.872047 -0.901727 -0.432306 107.303 0)" stroke="#533FEB"/>
<line opacity="0.5" y1="-0.5" x2="69.4475" y2="-0.5" transform="matrix(-0.489423 0.872047 -0.901727 -0.432306 110.806 0)" stroke="#533FEB"/>
<line opacity="0.5" y1="-0.5" x2="69.4475" y2="-0.5" transform="matrix(-0.489423 0.872047 -0.901727 -0.432306 114.311 0)" stroke="#533FEB"/>
</g>
<g opacity="0.9">
<line opacity="0.5" y1="-0.5" x2="69.4475" y2="-0.5" transform="matrix(-0.489423 0.872047 -0.901727 -0.432306 117.679 0)" stroke="#533FEB"/>
<line opacity="0.5" y1="-0.5" x2="69.4475" y2="-0.5" transform="matrix(-0.489423 0.872047 -0.901727 -0.432306 121.183 0)" stroke="#533FEB"/>
<line opacity="0.5" y1="-0.5" x2="69.4475" y2="-0.5" transform="matrix(-0.489423 0.872047 -0.901727 -0.432306 124.687 0)" stroke="#533FEB"/>
<line opacity="0.5" y1="-0.5" x2="69.4475" y2="-0.5" transform="matrix(-0.489423 0.872047 -0.901727 -0.432306 128.191 0)" stroke="#533FEB"/>
<line opacity="0.5" y1="-0.5" x2="69.4475" y2="-0.5" transform="matrix(-0.489423 0.872047 -0.901727 -0.432306 131.695 0)" stroke="#533FEB"/>
<line opacity="0.5" y1="-0.5" x2="69.4475" y2="-0.5" transform="matrix(-0.489423 0.872047 -0.901727 -0.432306 135.199 0)" stroke="#533FEB"/>
<line opacity="0.5" y1="-0.5" x2="69.4475" y2="-0.5" transform="matrix(-0.489423 0.872047 -0.901727 -0.432306 138.703 0)" stroke="#533FEB"/>
<line opacity="0.5" y1="-0.5" x2="69.4475" y2="-0.5" transform="matrix(-0.489423 0.872047 -0.901727 -0.432306 142.207 0)" stroke="#533FEB"/>
</g>
<g opacity="0.9">
<line opacity="0.5" y1="-0.5" x2="69.4475" y2="-0.5" transform="matrix(-0.489423 0.872047 -0.901727 -0.432306 145.575 0)" stroke="#533FEB"/>
<line opacity="0.5" y1="-0.5" x2="69.4475" y2="-0.5" transform="matrix(-0.489423 0.872047 -0.901727 -0.432306 149.079 0)" stroke="#533FEB"/>
<line opacity="0.5" y1="-0.5" x2="69.4475" y2="-0.5" transform="matrix(-0.489423 0.872047 -0.901727 -0.432306 152.583 0)" stroke="#533FEB"/>
<line opacity="0.5" y1="-0.5" x2="69.4475" y2="-0.5" transform="matrix(-0.489423 0.872047 -0.901727 -0.432306 156.087 0)" stroke="#533FEB"/>
<line opacity="0.5" y1="-0.5" x2="69.4475" y2="-0.5" transform="matrix(-0.489423 0.872047 -0.901727 -0.432306 159.592 0)" stroke="#533FEB"/>
<line opacity="0.5" y1="-0.5" x2="69.4475" y2="-0.5" transform="matrix(-0.489423 0.872047 -0.901727 -0.432306 163.095 0)" stroke="#533FEB"/>
<line opacity="0.5" y1="-0.5" x2="69.4475" y2="-0.5" transform="matrix(-0.489423 0.872047 -0.901727 -0.432306 166.599 0)" stroke="#533FEB"/>
<line opacity="0.5" y1="-0.5" x2="69.4475" y2="-0.5" transform="matrix(-0.489423 0.872047 -0.901727 -0.432306 170.104 0)" stroke="#533FEB"/>
</g>
<g opacity="0.9">
<line opacity="0.5" y1="-0.5" x2="69.4475" y2="-0.5" transform="matrix(-0.489423 0.872047 -0.901727 -0.432306 173.472 0)" stroke="#533FEB"/>
<line opacity="0.5" y1="-0.5" x2="69.4475" y2="-0.5" transform="matrix(-0.489423 0.872047 -0.901727 -0.432306 176.976 0)" stroke="#533FEB"/>
<line opacity="0.5" y1="-0.5" x2="69.4475" y2="-0.5" transform="matrix(-0.489423 0.872047 -0.901727 -0.432306 180.48 0)" stroke="#533FEB"/>
<line opacity="0.5" y1="-0.5" x2="69.4475" y2="-0.5" transform="matrix(-0.489423 0.872047 -0.901727 -0.432306 183.984 0)" stroke="#533FEB"/>
<line opacity="0.5" y1="-0.5" x2="69.4475" y2="-0.5" transform="matrix(-0.489423 0.872047 -0.901727 -0.432306 187.488 0)" stroke="#533FEB"/>
<line opacity="0.5" y1="-0.5" x2="69.4475" y2="-0.5" transform="matrix(-0.489423 0.872047 -0.901727 -0.432306 190.992 0)" stroke="#533FEB"/>
<line opacity="0.5" y1="-0.5" x2="69.4475" y2="-0.5" transform="matrix(-0.489423 0.872047 -0.901727 -0.432306 194.496 0)" stroke="#533FEB"/>
<line opacity="0.5" y1="-0.5" x2="69.4475" y2="-0.5" transform="matrix(-0.489423 0.872047 -0.901727 -0.432306 198 0)" stroke="#533FEB"/>
</g>
</svg>
